<svg version="1.1" viewBox="0.0 0.0 960.0 540.0" fill="none" stroke="none" stroke-linecap="square" stroke-miterlimit="10" xmlns:xlink="http://www.w3.org/1999/xlink" xmlns="http://www.w3.org/2000/svg"><clipPath id="g2e72a7181e8_0_113.0"><path d="m0 0l960.0 0l0 540.0l-960.0 0l0 -540.0z" clip-rule="nonzero"/></clipPath><g clip-path="url(#g2e72a7181e8_0_113.0)"><path fill="#ffffff" d="m0 0l960.0 0l0 540.0l-960.0 0z" fill-rule="evenodd"/><path fill="#cc0000" d="m251.21199 142.40945l109.6693 0l0 31.716537l-109.6693 0z" fill-rule="evenodd"/><path stroke="#595959" stroke-width="1.0" stroke-linejoin="round" stroke-linecap="butt" d="m251.21199 142.40945l109.6693 0l0 31.716537l-109.6693 0z" fill-rule="evenodd"/><path fill="#4285f4" d="m251.21199 179.65392l109.6693 0l0 31.716522l-109.6693 0z" fill-rule="evenodd"/><path stroke="#595959" stroke-width="1.0" stroke-linejoin="round" stroke-linecap="butt" d="m251.21199 179.65392l109.6693 0l0 31.716522l-109.6693 0z" fill-rule="evenodd"/><path fill="#ffffff" d="m299.2435 151.46588l6.803131 -6.8031464l6.8031616 6.8031464l-3.4015808 0l0 20.409454l-6.8031616 0l0 -20.409454z" fill-rule="evenodd"/><path stroke="#595959" stroke-width="1.0" stroke-linejoin="round" stroke-linecap="butt" d="m299.2435 151.46588l6.803131 -6.8031464l6.8031616 6.8031464l-3.4015808 0l0 20.409454l-6.8031616 0l0 -20.409454z" fill-rule="evenodd"/><path fill="#000000" d="m312.8498 203.44226l-6.8031616 6.8031464l-6.803131 -6.8031464l3.4015503 0l0 -20.409454l6.8031616 0l0 20.409454z" fill-rule="evenodd"/><path stroke="#595959" stroke-width="1.0" stroke-linejoin="round" stroke-linecap="butt" d="m312.8498 203.44226l-6.8031616 6.8031464l-6.803131 -6.8031464l3.4015503 0l0 -20.409454l6.8031616 0l0 20.409454z" fill-rule="evenodd"/><path fill="#cc0000" d="m251.21199 216.89764l109.6693 0l0 31.716522l-109.6693 0z" fill-rule="evenodd"/><path stroke="#595959" stroke-width="1.0" stroke-linejoin="round" stroke-linecap="butt" d="m251.21199 216.89764l109.6693 0l0 31.716522l-109.6693 0z" fill-rule="evenodd"/><path fill="#4285f4" d="m251.21199 254.1421l109.6693 0l0 31.716537l-109.6693 0z" fill-rule="evenodd"/><path stroke="#595959" stroke-width="1.0" stroke-linejoin="round" stroke-linecap="butt" d="m251.21199 254.1421l109.6693 0l0 31.716537l-109.6693 0z" fill-rule="evenodd"/><path fill="#ffffff" d="m299.2435 225.95407l6.803131 -6.8031464l6.8031616 6.8031464l-3.4015808 0l0 20.40944l-6.8031616 0l0 -20.40944z" fill-rule="evenodd"/><path stroke="#595959" stroke-width="1.0" stroke-linejoin="round" stroke-linecap="butt" d="m299.2435 225.95407l6.803131 -6.8031464l6.8031616 6.8031464l-3.4015808 0l0 20.40944l-6.8031616 0l0 -20.40944z" fill-rule="evenodd"/><path fill="#000000" d="m312.8498 277.93045l-6.8031616 6.803131l-6.803131 -6.803131l3.4015503 0l0 -20.409454l6.8031616 0l0 20.409454z" fill-rule="evenodd"/><path stroke="#595959" stroke-width="1.0" stroke-linejoin="round" stroke-linecap="butt" d="m312.8498 277.93045l-6.8031616 6.803131l-6.803131 -6.803131l3.4015503 0l0 -20.409454l6.8031616 0l0 20.409454z" fill-rule="evenodd"/><path fill="#4285f4" d="m251.21199 291.38583l109.6693 0l0 31.716522l-109.6693 0z" fill-rule="evenodd"/><path stroke="#595959" stroke-width="1.0" stroke-linejoin="round" stroke-linecap="butt" d="m251.21199 291.38583l109.6693 0l0 31.716522l-109.6693 0z" fill-rule="evenodd"/><path fill="#cc0000" d="m251.21199 328.63028l109.6693 0l0 31.716553l-109.6693 0z" fill-rule="evenodd"/><path stroke="#595959" stroke-width="1.0" stroke-linejoin="round" stroke-linecap="butt" d="m251.21199 328.63028l109.6693 0l0 31.716553l-109.6693 0z" fill-rule="evenodd"/><path fill="#ffffff" d="m299.2435 337.68372l6.803131 -6.803131l6.8031616 6.803131l-3.4015808 0l0 20.409454l-6.8031616 0l0 -20.409454z" fill-rule="evenodd"/><path stroke="#595959" stroke-width="1.0" stroke-linejoin="round" stroke-linecap="butt" d="m299.2435 337.68372l6.803131 -6.803131l6.8031616 6.803131l-3.4015808 0l0 20.409454l-6.8031616 0l0 -20.409454z" fill-rule="evenodd"/><path fill="#000000" d="m312.8498 315.1719l-6.8031616 6.8031616l-6.803131 -6.8031616l3.4015503 0l0 -20.409424l6.8031616 0l0 20.409424z" fill-rule="evenodd"/><path stroke="#595959" stroke-width="1.0" stroke-linejoin="round" stroke-linecap="butt" d="m312.8498 315.1719l-6.8031616 6.8031616l-6.803131 -6.8031616l3.4015503 0l0 -20.409424l6.8031616 0l0 20.409424z" fill-rule="evenodd"/><path fill="#4285f4" d="m251.21199 365.87402l109.6693 0l0 31.716522l-109.6693 0z" fill-rule="evenodd"/><path stroke="#595959" stroke-width="1.0" stroke-linejoin="round" stroke-linecap="butt" d="m251.21199 365.87402l109.6693 0l0 31.716522l-109.6693 0z" fill-rule="evenodd"/><path fill="#cc0000" d="m251.21199 403.11847l109.6693 0l0 31.716553l-109.6693 0z" fill-rule="evenodd"/><path stroke="#595959" stroke-width="1.0" stroke-linejoin="round" stroke-linecap="butt" d="m251.21199 403.11847l109.6693 0l0 31.716553l-109.6693 0z" fill-rule="evenodd"/><path fill="#ffffff" d="m299.2435 412.1719l6.803131 -6.803131l6.8031616 6.803131l-3.4015808 0l0 20.409454l-6.8031616 0l0 -20.409454z" fill-rule="evenodd"/><path stroke="#595959" stroke-width="1.0" stroke-linejoin="round" stroke-linecap="butt" d="m299.2435 412.1719l6.803131 -6.803131l6.8031616 6.803131l-3.4015808 0l0 20.409454l-6.8031616 0l0 -20.409454z" fill-rule="evenodd"/><path fill="#000000" d="m312.8498 388.53412l-6.8031616 6.8031616l-6.803131 -6.8031616l3.4015503 0l0 -20.409454l6.8031616 0l0 20.409454z" fill-rule="evenodd"/><path stroke="#595959" stroke-width="1.0" stroke-linejoin="round" stroke-linecap="butt" d="m312.8498 388.53412l-6.8031616 6.8031616l-6.803131 -6.8031616l3.4015503 0l0 -20.409454l6.8031616 0l0 20.409454z" fill-rule="evenodd"/><path fill="#cc0000" d="m367.14636 142.40945l109.66931 0l0 31.716537l-109.66931 0z" fill-rule="evenodd"/><path stroke="#595959" stroke-width="1.0" stroke-linejoin="round" stroke-linecap="butt" d="m367.14636 142.40945l109.66931 0l0 31.716537l-109.66931 0z" fill-rule="evenodd"/><path fill="#4285f4" d="m367.14636 179.65392l109.66931 0l0 31.716522l-109.66931 0z" fill-rule="evenodd"/><path stroke="#595959" stroke-width="1.0" stroke-linejoin="round" stroke-linecap="butt" d="m367.14636 179.65392l109.66931 0l0 31.716522l-109.66931 0z" fill-rule="evenodd"/><path fill="#ffffff" d="m415.17786 151.46588l6.8031616 -6.8031464l6.8031616 6.8031464l-3.4015808 0l0 20.409454l-6.8031616 0l0 -20.409454z" fill-rule="evenodd"/><path stroke="#595959" stroke-width="1.0" stroke-linejoin="round" stroke-linecap="butt" d="m415.17786 151.46588l6.8031616 -6.8031464l6.8031616 6.8031464l-3.4015808 0l0 20.409454l-6.8031616 0l0 -20.409454z" fill-rule="evenodd"/><path fill="#000000" d="m428.78418 203.44226l-6.8031616 6.8031464l-6.8031616 -6.8031464l3.4015808 0l0 -20.409454l6.8031616 0l0 20.409454z" fill-rule="evenodd"/><path stroke="#595959" stroke-width="1.0" stroke-linejoin="round" stroke-linecap="butt" d="m428.78418 203.44226l-6.8031616 6.8031464l-6.8031616 -6.8031464l3.4015808 0l0 -20.409454l6.8031616 0l0 20.409454z" fill-rule="evenodd"/><path fill="#cc0000" d="m367.14636 216.89764l109.66931 0l0 31.716522l-109.66931 0z" fill-rule="evenodd"/><path stroke="#595959" stroke-width="1.0" stroke-linejoin="round" stroke-linecap="butt" d="m367.14636 216.89764l109.66931 0l0 31.716522l-109.66931 0z" fill-rule="evenodd"/><path fill="#cc0000" d="m367.14636 254.1421l109.66931 0l0 31.716537l-109.66931 0z" fill-rule="evenodd"/><path stroke="#595959" stroke-width="1.0" stroke-linejoin="round" stroke-linecap="butt" d="m367.14636 254.1421l109.66931 0l0 31.716537l-109.66931 0z" fill-rule="evenodd"/><path fill="#ffffff" d="m415.17786 225.95407l6.8031616 -6.8031464l6.8031616 6.8031464l-3.4015808 0l0 20.40944l-6.8031616 0l0 -20.40944z" fill-rule="evenodd"/><path stroke="#595959" stroke-width="1.0" stroke-linejoin="round" stroke-linecap="butt" d="m415.17786 225.95407l6.8031616 -6.8031464l6.8031616 6.8031464l-3.4015808 0l0 20.40944l-6.8031616 0l0 -20.40944z" fill-rule="evenodd"/><path fill="#4285f4" d="m367.14636 291.38583l109.66931 0l0 31.716522l-109.66931 0z" fill-rule="evenodd"/><path stroke="#595959" stroke-width="1.0" stroke-linejoin="round" stroke-linecap="butt" d="m367.14636 291.38583l109.66931 0l0 31.716522l-109.66931 0z" fill-rule="evenodd"/><path fill="#cc0000" d="m367.14636 328.63028l109.66931 0l0 31.716553l-109.66931 0z" fill-rule="evenodd"/><path stroke="#595959" stroke-width="1.0" stroke-linejoin="round" stroke-linecap="butt" d="m367.14636 328.63028l109.66931 0l0 31.716553l-109.66931 0z" fill-rule="evenodd"/><path fill="#ffffff" d="m415.17786 337.68372l6.8031616 -6.803131l6.8031616 6.803131l-3.4015808 0l0 20.409454l-6.8031616 0l0 -20.409454z" fill-rule="evenodd"/><path stroke="#595959" stroke-width="1.0" stroke-linejoin="round" stroke-linecap="butt" d="m415.17786 337.68372l6.8031616 -6.803131l6.8031616 6.803131l-3.4015808 0l0 20.409454l-6.8031616 0l0 -20.409454z" fill-rule="evenodd"/><path fill="#000000" d="m428.78418 315.1719l-6.8031616 6.8031616l-6.8031616 -6.8031616l3.4015808 0l0 -20.409424l6.8031616 0l0 20.409424z" fill-rule="evenodd"/><path stroke="#595959" stroke-width="1.0" stroke-linejoin="round" stroke-linecap="butt" d="m428.78418 315.1719l-6.8031616 6.8031616l-6.8031616 -6.8031616l3.4015808 0l0 -20.409424l6.8031616 0l0 20.409424z" fill-rule="evenodd"/><path fill="#4285f4" d="m367.14636 365.87402l109.66931 0l0 31.716522l-109.66931 0z" fill-rule="evenodd"/><path stroke="#595959" stroke-width="1.0" stroke-linejoin="round" stroke-linecap="butt" d="m367.14636 365.87402l109.66931 0l0 31.716522l-109.66931 0z" fill-rule="evenodd"/><path fill="#cc0000" d="m367.14636 403.11847l109.66931 0l0 31.716553l-109.66931 0z" fill-rule="evenodd"/><path stroke="#595959" stroke-width="1.0" stroke-linejoin="round" stroke-linecap="butt" d="m367.14636 403.11847l109.66931 0l0 31.716553l-109.66931 0z" fill-rule="evenodd"/><path fill="#ffffff" d="m415.17786 412.1719l6.8031616 -6.803131l6.8031616 6.803131l-3.4015808 0l0 20.409454l-6.8031616 0l0 -20.409454z" fill-rule="evenodd"/><path stroke="#595959" stroke-width="1.0" stroke-linejoin="round" stroke-linecap="butt" d="m415.17786 412.1719l6.8031616 -6.803131l6.8031616 6.803131l-3.4015808 0l0 20.409454l-6.8031616 0l0 -20.409454z" fill-rule="evenodd"/><path fill="#000000" d="m428.78418 388.53412l-6.8031616 6.8031616l-6.8031616 -6.8031616l3.4015808 0l0 -20.409454l6.8031616 0l0 20.409454z" fill-rule="evenodd"/><path stroke="#595959" stroke-width="1.0" stroke-linejoin="round" stroke-linecap="butt" d="m428.78418 388.53412l-6.8031616 6.8031616l-6.8031616 -6.8031616l3.4015808 0l0 -20.409454l6.8031616 0l0 20.409454z" fill-rule="evenodd"/><path fill="#ffffff" d="m415.17786 263.19553l6.8031616 -6.803131l6.8031616 6.803131l-3.4015808 0l0 20.409454l-6.8031616 0l0 -20.409454z" fill-rule="evenodd"/><path stroke="#595959" stroke-width="1.0" stroke-linejoin="round" stroke-linecap="butt" d="m415.17786 263.19553l6.8031616 -6.803131l6.8031616 6.803131l-3.4015808 0l0 20.409454l-6.8031616 0l0 -20.409454z" fill-rule="evenodd"/><path fill="#cc0000" d="m483.08075 142.40945l109.66931 0l0 31.716537l-109.66931 0z" fill-rule="evenodd"/><path stroke="#595959" stroke-width="1.0" stroke-linejoin="round" stroke-linecap="butt" d="m483.08075 142.40945l109.66931 0l0 31.716537l-109.66931 0z" fill-rule="evenodd"/><path fill="#4285f4" d="m483.08075 179.65392l109.66931 0l0 31.716522l-109.66931 0z" fill-rule="evenodd"/><path stroke="#595959" stroke-width="1.0" stroke-linejoin="round" stroke-linecap="butt" d="m483.08075 179.65392l109.66931 0l0 31.716522l-109.66931 0z" fill-rule="evenodd"/><path fill="#ffffff" d="m531.11224 151.46588l6.8031616 -6.8031464l6.8031616 6.8031464l-3.4016113 0l0 20.409454l-6.8031006 0l0 -20.409454z" fill-rule="evenodd"/><path stroke="#595959" stroke-width="1.0" stroke-linejoin="round" stroke-linecap="butt" d="m531.11224 151.46588l6.8031616 -6.8031464l6.8031616 6.8031464l-3.4016113 0l0 20.409454l-6.8031006 0l0 -20.409454z" fill-rule="evenodd"/><path fill="#000000" d="m544.71857 203.44226l-6.8031616 6.8031464l-6.8031616 -6.8031464l3.4016113 0l0 -20.409454l6.8031006 0l0 20.409454z" fill-rule="evenodd"/><path stroke="#595959" stroke-width="1.0" stroke-linejoin="round" stroke-linecap="butt" d="m544.71857 203.44226l-6.8031616 6.8031464l-6.8031616 -6.8031464l3.4016113 0l0 -20.409454l6.8031006 0l0 20.409454z" fill-rule="evenodd"/><path fill="#4285f4" d="m483.08075 216.89764l109.66931 0l0 31.716522l-109.66931 0z" fill-rule="evenodd"/><path stroke="#595959" stroke-width="1.0" stroke-linejoin="round" stroke-linecap="butt" d="m483.08075 216.89764l109.66931 0l0 31.716522l-109.66931 0z" fill-rule="evenodd"/><path fill="#cc0000" d="m483.08075 254.1421l109.66931 0l0 31.716537l-109.66931 0z" fill-rule="evenodd"/><path stroke="#595959" stroke-width="1.0" stroke-linejoin="round" stroke-linecap="butt" d="m483.08075 254.1421l109.66931 0l0 31.716537l-109.66931 0z" fill-rule="evenodd"/><path fill="#ffffff" d="m531.11224 263.19553l6.8031616 -6.803131l6.8031616 6.803131l-3.4016113 0l0 20.409454l-6.8031006 0l0 -20.409454z" fill-rule="evenodd"/><path stroke="#595959" stroke-width="1.0" stroke-linejoin="round" stroke-linecap="butt" d="m531.11224 263.19553l6.8031616 -6.803131l6.8031616 6.803131l-3.4016113 0l0 20.409454l-6.8031006 0l0 -20.409454z" fill-rule="evenodd"/><path fill="#000000" d="m544.71857 240.68373l-6.8031616 6.8031464l-6.8031616 -6.8031464l3.4016113 0l0 -20.409454l6.8031006 0l0 20.409454z" fill-rule="evenodd"/><path stroke="#595959" stroke-width="1.0" stroke-linejoin="round" stroke-linecap="butt" d="m544.71857 240.68373l-6.8031616 6.8031464l-6.8031616 -6.8031464l3.4016113 0l0 -20.409454l6.8031006 0l0 20.409454z" fill-rule="evenodd"/><path fill="#4285f4" d="m483.08075 291.38583l109.66931 0l0 31.716522l-109.66931 0z" fill-rule="evenodd"/><path stroke="#595959" stroke-width="1.0" stroke-linejoin="round" stroke-linecap="butt" d="m483.08075 291.38583l109.66931 0l0 31.716522l-109.66931 0z" fill-rule="evenodd"/><path fill="#cc0000" d="m483.08075 328.63028l109.66931 0l0 31.716553l-109.66931 0z" fill-rule="evenodd"/><path stroke="#595959" stroke-width="1.0" stroke-linejoin="round" stroke-linecap="butt" d="m483.08075 328.63028l109.66931 0l0 31.716553l-109.66931 0z" fill-rule="evenodd"/><path fill="#ffffff" d="m531.11224 337.68372l6.8031616 -6.803131l6.8031616 6.803131l-3.4016113 0l0 20.409454l-6.8031006 0l0 -20.409454z" fill-rule="evenodd"/><path stroke="#595959" stroke-width="1.0" stroke-linejoin="round" stroke-linecap="butt" d="m531.11224 337.68372l6.8031616 -6.803131l6.8031616 6.803131l-3.4016113 0l0 20.409454l-6.8031006 0l0 -20.409454z" fill-rule="evenodd"/><path fill="#000000" d="m544.71857 314.04593l-6.8031616 6.8031616l-6.8031616 -6.8031616l3.4016113 0l0 -20.409454l6.8031006 0l0 20.409454z" fill-rule="evenodd"/><path stroke="#595959" stroke-width="1.0" stroke-linejoin="round" stroke-linecap="butt" d="m544.71857 314.04593l-6.8031616 6.8031616l-6.8031616 -6.8031616l3.4016113 0l0 -20.409454l6.8031006 0l0 20.409454z" fill-rule="evenodd"/><path fill="#4285f4" d="m483.08075 365.87402l109.66931 0l0 31.716522l-109.66931 0z" fill-rule="evenodd"/><path stroke="#595959" stroke-width="1.0" stroke-linejoin="round" stroke-linecap="butt" d="m483.08075 365.87402l109.66931 0l0 31.716522l-109.66931 0z" fill-rule="evenodd"/><path fill="#cc0000" d="m483.08075 403.11847l109.66931 0l0 31.716553l-109.66931 0z" fill-rule="evenodd"/><path stroke="#595959" stroke-width="1.0" stroke-linejoin="round" stroke-linecap="butt" d="m483.08075 403.11847l109.66931 0l0 31.716553l-109.66931 0z" fill-rule="evenodd"/><path fill="#ffffff" d="m531.11224 412.1719l6.8031616 -6.803131l6.8031616 6.803131l-3.4016113 0l0 20.409454l-6.8031006 0l0 -20.409454z" fill-rule="evenodd"/><path stroke="#595959" stroke-width="1.0" stroke-linejoin="round" stroke-linecap="butt" d="m531.11224 412.1719l6.8031616 -6.803131l6.8031616 6.803131l-3.4016113 0l0 20.409454l-6.8031006 0l0 -20.409454z" fill-rule="evenodd"/><path fill="#000000" d="m544.71857 388.53412l-6.8031616 6.8031616l-6.8031616 -6.8031616l3.4016113 0l0 -20.409454l6.8031006 0l0 20.409454z" fill-rule="evenodd"/><path stroke="#595959" stroke-width="1.0" stroke-linejoin="round" stroke-linecap="butt" d="m544.71857 388.53412l-6.8031616 6.8031616l-6.8031616 -6.8031616l3.4016113 0l0 -20.409454l6.8031006 0l0 20.409454z" fill-rule="evenodd"/><path fill="#4285f4" d="m251.21199 105.16572l109.6693 0l0 31.71653l-109.6693 0z" fill-rule="evenodd"/><path stroke="#595959" stroke-width="1.0" stroke-linejoin="round" stroke-linecap="butt" d="m251.21199 105.16572l109.6693 0l0 31.71653l-109.6693 0z" fill-rule="evenodd"/><path fill="#000000" d="m312.8498 128.95407l-6.8031616 6.8031464l-6.803131 -6.8031464l3.4015503 0l0 -20.409454l6.8031616 0l0 20.409454z" fill-rule="evenodd"/><path stroke="#595959" stroke-width="1.0" stroke-linejoin="round" stroke-linecap="butt" d="m312.8498 128.95407l-6.8031616 6.8031464l-6.803131 -6.8031464l3.4015503 0l0 -20.409454l6.8031616 0l0 20.409454z" fill-rule="evenodd"/><path fill="#4285f4" d="m367.14636 105.16572l109.66931 0l0 31.71653l-109.66931 0z" fill-rule="evenodd"/><path stroke="#595959" stroke-width="1.0" stroke-linejoin="round" stroke-linecap="butt" d="m367.14636 105.16572l109.66931 0l0 31.71653l-109.66931 0z" fill-rule="evenodd"/><path fill="#000000" d="m428.78418 128.95407l-6.8031616 6.8031464l-6.8031616 -6.8031464l3.4015808 0l0 -20.409454l6.8031616 0l0 20.409454z" fill-rule="evenodd"/><path stroke="#595959" stroke-width="1.0" stroke-linejoin="round" stroke-linecap="butt" d="m428.78418 128.95407l-6.8031616 6.8031464l-6.8031616 -6.8031464l3.4015808 0l0 -20.409454l6.8031616 0l0 20.409454z" fill-rule="evenodd"/><path fill="#4285f4" d="m483.08075 105.16572l109.66931 0l0 31.71653l-109.66931 0z" fill-rule="evenodd"/><path stroke="#595959" stroke-width="1.0" stroke-linejoin="round" stroke-linecap="butt" d="m483.08075 105.16572l109.66931 0l0 31.71653l-109.66931 0z" fill-rule="evenodd"/><path fill="#000000" d="m544.71857 128.95407l-6.8031616 6.8031464l-6.8031616 -6.8031464l3.4016113 0l0 -20.409454l6.8031006 0l0 20.409454z" fill-rule="evenodd"/><path stroke="#595959" stroke-width="1.0" stroke-linejoin="round" stroke-linecap="butt" d="m544.71857 128.95407l-6.8031616 6.8031464l-6.8031616 -6.8031464l3.4016113 0l0 -20.409454l6.8031006 0l0 20.409454z" fill-rule="evenodd"/><path fill="#000000" fill-opacity="0.0" d="m248.3549 250.90709l115.59056 0l0 76.03151l-115.59056 0z" fill-rule="evenodd"/><path stroke="#ff00ff" stroke-width="4.0" stroke-linejoin="round" stroke-linecap="butt" stroke-dasharray="16.0,12.0" d="m248.3549 250.90709l115.59056 0l0 76.03151l-115.59056 0z" fill-rule="evenodd"/><path fill="#000000" fill-opacity="0.0" d="m364.18692 213.36116l115.590546 0l0 76.03151l-115.590546 0z" fill-rule="evenodd"/><path stroke="#ff00ff" stroke-width="4.0" stroke-linejoin="round" stroke-linecap="butt" stroke-dasharray="16.0,12.0" d="m364.18692 213.36116l115.590546 0l0 76.03151l-115.590546 0z" fill-rule="evenodd"/><path fill="#000000" fill-opacity="0.0" d="m480.1213 176.11707l115.590546 0l0 76.031494l-115.590546 0z" fill-rule="evenodd"/><path stroke="#ff00ff" stroke-width="4.0" stroke-linejoin="round" stroke-linecap="butt" stroke-dasharray="16.0,12.0" d="m480.1213 176.11707l115.590546 0l0 76.031494l-115.590546 0z" fill-rule="evenodd"/><path fill="#4285f4" d="m599.01514 105.16572l109.66931 0l0 31.71653l-109.66931 0z" fill-rule="evenodd"/><path stroke="#595959" stroke-width="1.0" stroke-linejoin="round" stroke-linecap="butt" d="m599.01514 105.16572l109.66931 0l0 31.71653l-109.66931 0z" fill-rule="evenodd"/><path fill="#000000" d="m660.65295 128.95407l-6.8031616 6.8031464l-6.8031616 -6.8031464l3.4015503 0l0 -20.409454l6.8031616 0l0 20.409454z" fill-rule="evenodd"/><path stroke="#595959" stroke-width="1.0" stroke-linejoin="round" stroke-linecap="butt" d="m660.65295 128.95407l-6.8031616 6.8031464l-6.8031616 -6.8031464l3.4015503 0l0 -20.409454l6.8031616 0l0 20.409454z" fill-rule="evenodd"/><path fill="#cc0000" d="m599.01514 142.40945l109.66931 0l0 31.716537l-109.66931 0z" fill-rule="evenodd"/><path stroke="#595959" stroke-width="1.0" stroke-linejoin="round" stroke-linecap="butt" d="m599.01514 142.40945l109.66931 0l0 31.716537l-109.66931 0z" fill-rule="evenodd"/><path fill="#cc0000" d="m599.01514 179.65392l109.66931 0l0 31.716522l-109.66931 0z" fill-rule="evenodd"/><path stroke="#595959" stroke-width="1.0" stroke-linejoin="round" stroke-linecap="butt" d="m599.01514 179.65392l109.66931 0l0 31.716522l-109.66931 0z" fill-rule="evenodd"/><path fill="#ffffff" d="m647.04663 151.46588l6.8031616 -6.8031464l6.8031616 6.8031464l-3.4016113 0l0 20.409454l-6.8031616 0l0 -20.409454z" fill-rule="evenodd"/><path stroke="#595959" stroke-width="1.0" stroke-linejoin="round" stroke-linecap="butt" d="m647.04663 151.46588l6.8031616 -6.8031464l6.8031616 6.8031464l-3.4016113 0l0 20.409454l-6.8031616 0l0 -20.409454z" fill-rule="evenodd"/><path fill="#4285f4" d="m599.01514 216.89764l109.66931 0l0 31.716522l-109.66931 0z" fill-rule="evenodd"/><path stroke="#595959" stroke-width="1.0" stroke-linejoin="round" stroke-linecap="butt" d="m599.01514 216.89764l109.66931 0l0 31.716522l-109.66931 0z" fill-rule="evenodd"/><path fill="#cc0000" d="m599.01514 254.1421l109.66931 0l0 31.716537l-109.66931 0z" fill-rule="evenodd"/><path stroke="#595959" stroke-width="1.0" stroke-linejoin="round" stroke-linecap="butt" d="m599.01514 254.1421l109.66931 0l0 31.716537l-109.66931 0z" fill-rule="evenodd"/><path fill="#ffffff" d="m647.04663 263.19553l6.8031616 -6.803131l6.8031616 6.803131l-3.4016113 0l0 20.409454l-6.8031616 0l0 -20.409454z" fill-rule="evenodd"/><path stroke="#595959" stroke-width="1.0" stroke-linejoin="round" stroke-linecap="butt" d="m647.04663 263.19553l6.8031616 -6.803131l6.8031616 6.803131l-3.4016113 0l0 20.409454l-6.8031616 0l0 -20.409454z" fill-rule="evenodd"/><path fill="#000000" d="m660.65295 240.68373l-6.8031616 6.8031464l-6.8031616 -6.8031464l3.4015503 0l0 -20.409454l6.8031616 0l0 20.409454z" fill-rule="evenodd"/><path stroke="#595959" stroke-width="1.0" stroke-linejoin="round" stroke-linecap="butt" d="m660.65295 240.68373l-6.8031616 6.8031464l-6.8031616 -6.8031464l3.4015503 0l0 -20.409454l6.8031616 0l0 20.409454z" fill-rule="evenodd"/><path fill="#4285f4" d="m599.01514 291.38583l109.66931 0l0 31.716522l-109.66931 0z" fill-rule="evenodd"/><path stroke="#595959" stroke-width="1.0" stroke-linejoin="round" stroke-linecap="butt" d="m599.01514 291.38583l109.66931 0l0 31.716522l-109.66931 0z" fill-rule="evenodd"/><path fill="#cc0000" d="m599.01514 328.63028l109.66931 0l0 31.716553l-109.66931 0z" fill-rule="evenodd"/><path stroke="#595959" stroke-width="1.0" stroke-linejoin="round" stroke-linecap="butt" d="m599.01514 328.63028l109.66931 0l0 31.716553l-109.66931 0z" fill-rule="evenodd"/><path fill="#ffffff" d="m647.04663 337.68372l6.8031616 -6.803131l6.8031616 6.803131l-3.4016113 0l0 20.409454l-6.8031616 0l0 -20.409454z" fill-rule="evenodd"/><path stroke="#595959" stroke-width="1.0" stroke-linejoin="round" stroke-linecap="butt" d="m647.04663 337.68372l6.8031616 -6.803131l6.8031616 6.803131l-3.4016113 0l0 20.409454l-6.8031616 0l0 -20.409454z" fill-rule="evenodd"/><path fill="#000000" d="m660.65295 314.04593l-6.8031616 6.8031616l-6.8031616 -6.8031616l3.4015503 0l0 -20.409454l6.8031616 0l0 20.409454z" fill-rule="evenodd"/><path stroke="#595959" stroke-width="1.0" stroke-linejoin="round" stroke-linecap="butt" d="m660.65295 314.04593l-6.8031616 6.8031616l-6.8031616 -6.8031616l3.4015503 0l0 -20.409454l6.8031616 0l0 20.409454z" fill-rule="evenodd"/><path fill="#ffffff" d="m647.04663 188.70735l6.8031616 -6.8031464l6.8031616 6.8031464l-3.4016113 0l0 20.40944l-6.8031616 0l0 -20.40944z" fill-rule="evenodd"/><path stroke="#595959" stroke-width="1.0" stroke-linejoin="round" stroke-linecap="butt" d="m647.04663 188.70735l6.8031616 -6.8031464l6.8031616 6.8031464l-3.4016113 0l0 20.40944l-6.8031616 0l0 -20.40944z" fill-rule="evenodd"/><path fill="#000000" fill-opacity="0.0" d="m596.05566 138.87297l115.590576 0l0 76.031494l-115.590576 0z" fill-rule="evenodd"/><path stroke="#ff00ff" stroke-width="4.0" stroke-linejoin="round" stroke-linecap="butt" stroke-dasharray="16.0,12.0" d="m596.05566 138.87297l115.590576 0l0 76.031494l-115.590576 0z" fill-rule="evenodd"/><path fill="#4285f4" d="m599.01514 365.87402l109.66931 0l0 31.716522l-109.66931 0z" fill-rule="evenodd"/><path stroke="#595959" stroke-width="1.0" stroke-linejoin="round" stroke-linecap="butt" d="m599.01514 365.87402l109.66931 0l0 31.716522l-109.66931 0z" fill-rule="evenodd"/><path fill="#cc0000" d="m599.01514 403.11847l109.66931 0l0 31.716553l-109.66931 0z" fill-rule="evenodd"/><path stroke="#595959" stroke-width="1.0" stroke-linejoin="round" stroke-linecap="butt" d="m599.01514 403.11847l109.66931 0l0 31.716553l-109.66931 0z" fill-rule="evenodd"/><path fill="#ffffff" d="m647.04663 412.1719l6.8031616 -6.803131l6.8031616 6.803131l-3.4016113 0l0 20.409454l-6.8031616 0l0 -20.409454z" fill-rule="evenodd"/><path stroke="#595959" stroke-width="1.0" stroke-linejoin="round" stroke-linecap="butt" d="m647.04663 412.1719l6.8031616 -6.803131l6.8031616 6.803131l-3.4016113 0l0 20.409454l-6.8031616 0l0 -20.409454z" fill-rule="evenodd"/><path fill="#000000" d="m660.65295 388.53412l-6.8031616 6.8031616l-6.8031616 -6.8031616l3.4015503 0l0 -20.409454l6.8031616 0l0 20.409454z" fill-rule="evenodd"/><path stroke="#595959" stroke-width="1.0" stroke-linejoin="round" stroke-linecap="butt" d="m660.65295 388.53412l-6.8031616 6.8031616l-6.8031616 -6.8031616l3.4015503 0l0 -20.409454l6.8031616 0l0 20.409454z" fill-rule="evenodd"/></g></svg>