<svg version="1.1" viewBox="0.0 0.0 960.0 540.0" fill="none" stroke="none" stroke-linecap="square" stroke-miterlimit="10" xmlns:xlink="http://www.w3.org/1999/xlink" xmlns="http://www.w3.org/2000/svg"><clipPath id="g2e72a7181e8_0_0.0"><path d="m0 0l960.0 0l0 540.0l-960.0 0l0 -540.0z" clip-rule="nonzero"/></clipPath><g clip-path="url(#g2e72a7181e8_0_0.0)"><path fill="#ffffff" d="m0 0l960.0 0l0 540.0l-960.0 0z" fill-rule="evenodd"/><path fill="#cc0000" d="m641.523 118.8294l109.66931 0l0 31.71653l-109.66931 0z" fill-rule="evenodd"/><path stroke="#595959" stroke-width="1.0" stroke-linejoin="round" stroke-linecap="butt" d="m641.523 118.8294l109.66931 0l0 31.71653l-109.66931 0z" fill-rule="evenodd"/><path fill="#4285f4" d="m641.523 158.36781l109.66931 0l0 31.716537l-109.66931 0z" fill-rule="evenodd"/><path stroke="#595959" stroke-width="1.0" stroke-linejoin="round" stroke-linecap="butt" d="m641.523 158.36781l109.66931 0l0 31.716537l-109.66931 0z" fill-rule="evenodd"/><path fill="#cc0000" d="m641.523 197.90625l109.66931 0l0 31.716522l-109.66931 0z" fill-rule="evenodd"/><path stroke="#595959" stroke-width="1.0" stroke-linejoin="round" stroke-linecap="butt" d="m641.523 197.90625l109.66931 0l0 31.716522l-109.66931 0z" fill-rule="evenodd"/><path fill="#4285f4" d="m641.523 237.44467l109.66931 0l0 31.716522l-109.66931 0z" fill-rule="evenodd"/><path stroke="#595959" stroke-width="1.0" stroke-linejoin="round" stroke-linecap="butt" d="m641.523 237.44467l109.66931 0l0 31.716522l-109.66931 0z" fill-rule="evenodd"/><path fill="#cc0000" d="m641.523 315.95816l109.66931 0l0 31.716522l-109.66931 0z" fill-rule="evenodd"/><path stroke="#595959" stroke-width="1.0" stroke-linejoin="round" stroke-linecap="butt" d="m641.523 315.95816l109.66931 0l0 31.716522l-109.66931 0z" fill-rule="evenodd"/><path fill="#4285f4" d="m641.523 276.13962l109.66931 0l0 31.716553l-109.66931 0z" fill-rule="evenodd"/><path stroke="#595959" stroke-width="1.0" stroke-linejoin="round" stroke-linecap="butt" d="m641.523 276.13962l109.66931 0l0 31.716553l-109.66931 0z" fill-rule="evenodd"/><path fill="#cc0000" d="m641.5217 392.99026l109.66925 0l0 31.716522l-109.66925 0z" fill-rule="evenodd"/><path stroke="#595959" stroke-width="1.0" stroke-linejoin="round" stroke-linecap="butt" d="m641.5217 392.99026l109.66925 0l0 31.716522l-109.66925 0z" fill-rule="evenodd"/><path fill="#4285f4" d="m641.5217 355.30295l109.66925 0l0 31.716553l-109.66925 0z" fill-rule="evenodd"/><path stroke="#595959" stroke-width="1.0" stroke-linejoin="round" stroke-linecap="butt" d="m641.5217 355.30295l109.66925 0l0 31.716553l-109.66925 0z" fill-rule="evenodd"/><path fill="#ffffff" d="m689.5545 127.885826l6.8031616 -6.8031464l6.8031616 6.8031464l-3.4016113 0l0 20.409447l-6.8031616 0l0 -20.409447z" fill-rule="evenodd"/><path stroke="#595959" stroke-width="1.0" stroke-linejoin="round" stroke-linecap="butt" d="m689.5545 127.885826l6.8031616 -6.8031464l6.8031616 6.8031464l-3.4016113 0l0 20.409447l-6.8031616 0l0 -20.409447z" fill-rule="evenodd"/><path fill="#ffffff" d="m689.5545 206.96194l6.8031616 -6.8031464l6.8031616 6.8031464l-3.4016113 0l0 20.40944l-6.8031616 0l0 -20.40944z" fill-rule="evenodd"/><path stroke="#595959" stroke-width="1.0" stroke-linejoin="round" stroke-linecap="butt" d="m689.5545 206.96194l6.8031616 -6.8031464l6.8031616 6.8031464l-3.4016113 0l0 20.40944l-6.8031616 0l0 -20.40944z" fill-rule="evenodd"/><path fill="#ffffff" d="m689.5545 325.01312l6.8031616 -6.8031616l6.8031616 6.8031616l-3.4016113 0l0 20.409454l-6.8031616 0l0 -20.409454z" fill-rule="evenodd"/><path stroke="#595959" stroke-width="1.0" stroke-linejoin="round" stroke-linecap="butt" d="m689.5545 325.01312l6.8031616 -6.8031616l6.8031616 6.8031616l-3.4016113 0l0 20.409454l-6.8031616 0l0 -20.409454z" fill-rule="evenodd"/><path fill="#ffffff" d="m689.5532 402.0445l6.8031006 -6.803131l6.8031616 6.803131l-3.4015503 0l0 20.409454l-6.8031616 0l0 -20.409454z" fill-rule="evenodd"/><path stroke="#595959" stroke-width="1.0" stroke-linejoin="round" stroke-linecap="butt" d="m689.5532 402.0445l6.8031006 -6.803131l6.8031616 6.803131l-3.4015503 0l0 20.409454l-6.8031616 0l0 -20.409454z" fill-rule="evenodd"/><path fill="#000000" d="m703.1608 182.15617l-6.8031616 6.8031464l-6.8031616 -6.8031464l3.4015503 0l0 -20.409454l6.8031616 0l0 20.409454z" fill-rule="evenodd"/><path stroke="#595959" stroke-width="1.0" stroke-linejoin="round" stroke-linecap="butt" d="m703.1608 182.15617l-6.8031616 6.8031464l-6.8031616 -6.8031464l3.4015503 0l0 -20.409454l6.8031616 0l0 20.409454z" fill-rule="evenodd"/><path fill="#000000" d="m703.1608 261.23227l-6.8031616 6.8031616l-6.8031616 -6.8031616l3.4015503 0l0 -20.40944l6.8031616 0l0 20.40944z" fill-rule="evenodd"/><path stroke="#595959" stroke-width="1.0" stroke-linejoin="round" stroke-linecap="butt" d="m703.1608 261.23227l-6.8031616 6.8031616l-6.8031616 -6.8031616l3.4015503 0l0 -20.40944l6.8031616 0l0 20.40944z" fill-rule="evenodd"/><path fill="#000000" d="m703.1608 298.80054l-6.8031616 6.803131l-6.8031616 -6.803131l3.4015503 0l0 -20.409454l6.8031616 0l0 20.409454z" fill-rule="evenodd"/><path stroke="#595959" stroke-width="1.0" stroke-linejoin="round" stroke-linecap="butt" d="m703.1608 298.80054l-6.8031616 6.803131l-6.8031616 -6.803131l3.4015503 0l0 -20.409454l6.8031616 0l0 20.409454z" fill-rule="evenodd"/><path fill="#000000" d="m703.1595 380.2151l-6.8031616 6.8031616l-6.8031006 -6.8031616l3.4015503 0l0 -20.409424l6.8031616 0l0 20.409424z" fill-rule="evenodd"/><path stroke="#595959" stroke-width="1.0" stroke-linejoin="round" stroke-linecap="butt" d="m703.1595 380.2151l-6.8031616 6.8031616l-6.8031006 -6.8031616l3.4015503 0l0 -20.409424l6.8031616 0l0 20.409424z" fill-rule="evenodd"/><path fill="#4a86e8" d="m507.71198 118.59449l109.66931 0l0 31.71653l-109.66931 0z" fill-rule="evenodd"/><path stroke="#595959" stroke-width="1.0" stroke-linejoin="round" stroke-linecap="butt" d="m507.71198 118.59449l109.66931 0l0 31.71653l-109.66931 0z" fill-rule="evenodd"/><path fill="#cc0000" d="m507.71198 158.1329l109.66931 0l0 31.716537l-109.66931 0z" fill-rule="evenodd"/><path stroke="#595959" stroke-width="1.0" stroke-linejoin="round" stroke-linecap="butt" d="m507.71198 158.1329l109.66931 0l0 31.716537l-109.66931 0z" fill-rule="evenodd"/><path fill="#4a86e8" d="m507.71198 197.67134l109.66931 0l0 31.716522l-109.66931 0z" fill-rule="evenodd"/><path stroke="#595959" stroke-width="1.0" stroke-linejoin="round" stroke-linecap="butt" d="m507.71198 197.67134l109.66931 0l0 31.716522l-109.66931 0z" fill-rule="evenodd"/><path fill="#cc0000" d="m507.71198 237.20976l109.66931 0l0 31.716537l-109.66931 0z" fill-rule="evenodd"/><path stroke="#595959" stroke-width="1.0" stroke-linejoin="round" stroke-linecap="butt" d="m507.71198 237.20976l109.66931 0l0 31.716537l-109.66931 0z" fill-rule="evenodd"/><path fill="#4a86e8" d="m507.71198 315.72324l109.66931 0l0 31.716553l-109.66931 0z" fill-rule="evenodd"/><path stroke="#595959" stroke-width="1.0" stroke-linejoin="round" stroke-linecap="butt" d="m507.71198 315.72324l109.66931 0l0 31.716553l-109.66931 0z" fill-rule="evenodd"/><path fill="#cc0000" d="m507.71198 275.90472l109.66931 0l0 31.716522l-109.66931 0z" fill-rule="evenodd"/><path stroke="#595959" stroke-width="1.0" stroke-linejoin="round" stroke-linecap="butt" d="m507.71198 275.90472l109.66931 0l0 31.716522l-109.66931 0z" fill-rule="evenodd"/><path fill="#4a86e8" d="m507.71066 392.75534l109.66928 0l0 31.716553l-109.66928 0z" fill-rule="evenodd"/><path stroke="#595959" stroke-width="1.0" stroke-linejoin="round" stroke-linecap="butt" d="m507.71066 392.75534l109.66928 0l0 31.716553l-109.66928 0z" fill-rule="evenodd"/><path fill="#cc0000" d="m507.71066 355.06805l109.66928 0l0 31.716522l-109.66928 0z" fill-rule="evenodd"/><path stroke="#595959" stroke-width="1.0" stroke-linejoin="round" stroke-linecap="butt" d="m507.71066 355.06805l109.66928 0l0 31.716522l-109.66928 0z" fill-rule="evenodd"/><path fill="#ffffff" d="m555.74347 166.88658l6.8031616 -6.8031464l6.8031616 6.8031464l-3.4016113 0l0 20.409454l-6.8031006 0l0 -20.409454z" fill-rule="evenodd"/><path stroke="#595959" stroke-width="1.0" stroke-linejoin="round" stroke-linecap="butt" d="m555.74347 166.88658l6.8031616 -6.8031464l6.8031616 6.8031464l-3.4016113 0l0 20.409454l-6.8031006 0l0 -20.409454z" fill-rule="evenodd"/><path fill="#ffffff" d="m555.74347 245.9627l6.8031616 -6.8031616l6.8031616 6.8031616l-3.4016113 0l0 20.409454l-6.8031006 0l0 -20.409454z" fill-rule="evenodd"/><path stroke="#595959" stroke-width="1.0" stroke-linejoin="round" stroke-linecap="butt" d="m555.74347 245.9627l6.8031616 -6.8031616l6.8031616 6.8031616l-3.4016113 0l0 20.409454l-6.8031006 0l0 -20.409454z" fill-rule="evenodd"/><path fill="#ffffff" d="m555.74347 364.0139l6.8031616 -6.8031616l6.8031616 6.8031616l-3.4016113 0l0 20.409454l-6.8031006 0l0 -20.409454z" fill-rule="evenodd"/><path stroke="#595959" stroke-width="1.0" stroke-linejoin="round" stroke-linecap="butt" d="m555.74347 364.0139l6.8031616 -6.8031616l6.8031616 6.8031616l-3.4016113 0l0 20.409454l-6.8031006 0l0 -20.409454z" fill-rule="evenodd"/><path fill="#ffffff" d="m555.7422 284.7524l6.8031616 -6.8031616l6.8031006 6.8031616l-3.4015503 0l0 20.409424l-6.8031616 0l0 -20.409424z" fill-rule="evenodd"/><path stroke="#595959" stroke-width="1.0" stroke-linejoin="round" stroke-linecap="butt" d="m555.7422 284.7524l6.8031616 -6.8031616l6.8031006 6.8031616l-3.4015503 0l0 20.409424l-6.8031616 0l0 -20.409424z" fill-rule="evenodd"/><path fill="#000000" d="m569.3498 142.90552l-6.8031616 6.8031464l-6.8031616 -6.8031464l3.4016113 0l0 -20.409454l6.8031006 0l0 20.409454z" fill-rule="evenodd"/><path stroke="#595959" stroke-width="1.0" stroke-linejoin="round" stroke-linecap="butt" d="m569.3498 142.90552l-6.8031616 6.8031464l-6.8031616 -6.8031464l3.4016113 0l0 -20.409454l6.8031006 0l0 20.409454z" fill-rule="evenodd"/><path fill="#000000" d="m569.3498 223.42783l-6.8031616 6.8031464l-6.8031616 -6.8031464l3.4016113 0l0 -20.409454l6.8031006 0l0 20.409454z" fill-rule="evenodd"/><path stroke="#595959" stroke-width="1.0" stroke-linejoin="round" stroke-linecap="butt" d="m569.3498 223.42783l-6.8031616 6.8031464l-6.8031616 -6.8031464l3.4016113 0l0 -20.409454l6.8031006 0l0 20.409454z" fill-rule="evenodd"/><path fill="#000000" d="m569.3498 339.21783l-6.8031616 6.8031616l-6.8031616 -6.8031616l3.4016113 0l0 -20.409424l6.8031006 0l0 20.409424z" fill-rule="evenodd"/><path stroke="#595959" stroke-width="1.0" stroke-linejoin="round" stroke-linecap="butt" d="m569.3498 339.21783l-6.8031616 6.8031616l-6.8031616 -6.8031616l3.4016113 0l0 -20.409424l6.8031006 0l0 20.409424z" fill-rule="evenodd"/><path fill="#000000" d="m569.34845 416.24268l-6.8031006 6.803131l-6.8031616 -6.803131l3.4015503 0l0 -20.409454l6.8031616 0l0 20.409454z" fill-rule="evenodd"/><path stroke="#595959" stroke-width="1.0" stroke-linejoin="round" stroke-linecap="butt" d="m569.34845 416.24268l-6.8031006 6.803131l-6.8031616 -6.803131l3.4015503 0l0 -20.409454l6.8031616 0l0 20.409454z" fill-rule="evenodd"/><path fill="#cc0000" d="m342.62012 116.57743l109.66931 0l0 31.71653l-109.66931 0z" fill-rule="evenodd"/><path stroke="#595959" stroke-width="1.0" stroke-linejoin="round" stroke-linecap="butt" d="m342.62012 116.57743l109.66931 0l0 31.71653l-109.66931 0z" fill-rule="evenodd"/><path fill="#4285f4" d="m342.62012 156.11584l109.66931 0l0 31.716537l-109.66931 0z" fill-rule="evenodd"/><path stroke="#595959" stroke-width="1.0" stroke-linejoin="round" stroke-linecap="butt" d="m342.62012 156.11584l109.66931 0l0 31.716537l-109.66931 0z" fill-rule="evenodd"/><path fill="#cc0000" d="m342.62012 195.65428l109.66931 0l0 31.716522l-109.66931 0z" fill-rule="evenodd"/><path stroke="#595959" stroke-width="1.0" stroke-linejoin="round" stroke-linecap="butt" d="m342.62012 195.65428l109.66931 0l0 31.716522l-109.66931 0z" fill-rule="evenodd"/><path fill="#4285f4" d="m342.62012 235.1927l109.66931 0l0 31.716537l-109.66931 0z" fill-rule="evenodd"/><path stroke="#595959" stroke-width="1.0" stroke-linejoin="round" stroke-linecap="butt" d="m342.62012 235.1927l109.66931 0l0 31.716537l-109.66931 0z" fill-rule="evenodd"/><path fill="#cc0000" d="m342.62012 273.77048l109.66931 0l0 31.716553l-109.66931 0z" fill-rule="evenodd"/><path stroke="#595959" stroke-width="1.0" stroke-linejoin="round" stroke-linecap="butt" d="m342.62012 273.77048l109.66931 0l0 31.716553l-109.66931 0z" fill-rule="evenodd"/><path fill="#4285f4" d="m342.62012 390.50446l109.66931 0l0 31.716522l-109.66931 0z" fill-rule="evenodd"/><path stroke="#595959" stroke-width="1.0" stroke-linejoin="round" stroke-linecap="butt" d="m342.62012 390.50446l109.66931 0l0 31.716522l-109.66931 0z" fill-rule="evenodd"/><path fill="#cc0000" d="m342.6188 350.80258l109.66931 0l0 31.716553l-109.66931 0z" fill-rule="evenodd"/><path stroke="#595959" stroke-width="1.0" stroke-linejoin="round" stroke-linecap="butt" d="m342.6188 350.80258l109.66931 0l0 31.716553l-109.66931 0z" fill-rule="evenodd"/><path fill="#4285f4" d="m342.6188 313.1153l109.66931 0l0 31.716553l-109.66931 0z" fill-rule="evenodd"/><path stroke="#595959" stroke-width="1.0" stroke-linejoin="round" stroke-linecap="butt" d="m342.6188 313.1153l109.66931 0l0 31.716553l-109.66931 0z" fill-rule="evenodd"/><path fill="#ffffff" d="m390.6516 125.63386l6.8031616 -6.8031464l6.8031616 6.8031464l-3.4015808 0l0 20.409447l-6.8031616 0l0 -20.409447z" fill-rule="evenodd"/><path stroke="#595959" stroke-width="1.0" stroke-linejoin="round" stroke-linecap="butt" d="m390.6516 125.63386l6.8031616 -6.8031464l6.8031616 6.8031464l-3.4015808 0l0 20.409447l-6.8031616 0l0 -20.409447z" fill-rule="evenodd"/><path fill="#ffffff" d="m390.6516 204.70998l6.8031616 -6.8031464l6.8031616 6.8031464l-3.4015808 0l0 20.40944l-6.8031616 0l0 -20.40944z" fill-rule="evenodd"/><path stroke="#595959" stroke-width="1.0" stroke-linejoin="round" stroke-linecap="butt" d="m390.6516 204.70998l6.8031616 -6.8031464l6.8031616 6.8031464l-3.4015808 0l0 20.40944l-6.8031616 0l0 -20.40944z" fill-rule="evenodd"/><path fill="#ffffff" d="m390.6516 282.82547l6.8031616 -6.8031616l6.8031616 6.8031616l-3.4015808 0l0 20.409424l-6.8031616 0l0 -20.409424z" fill-rule="evenodd"/><path stroke="#595959" stroke-width="1.0" stroke-linejoin="round" stroke-linecap="butt" d="m390.6516 282.82547l6.8031616 -6.8031616l6.8031616 6.8031616l-3.4015808 0l0 20.409424l-6.8031616 0l0 -20.409424z" fill-rule="evenodd"/><path fill="#ffffff" d="m390.6503 359.85684l6.8031616 -6.8031616l6.8031616 6.8031616l-3.4015808 0l0 20.409454l-6.8031616 0l0 -20.409454z" fill-rule="evenodd"/><path stroke="#595959" stroke-width="1.0" stroke-linejoin="round" stroke-linecap="butt" d="m390.6503 359.85684l6.8031616 -6.8031616l6.8031616 6.8031616l-3.4015808 0l0 20.409454l-6.8031616 0l0 -20.409454z" fill-rule="evenodd"/><path fill="#000000" d="m404.25793 179.9042l-6.8031616 6.8031464l-6.8031616 -6.8031464l3.4015808 0l0 -20.409454l6.8031616 0l0 20.409454z" fill-rule="evenodd"/><path stroke="#595959" stroke-width="1.0" stroke-linejoin="round" stroke-linecap="butt" d="m404.25793 179.9042l-6.8031616 6.8031464l-6.8031616 -6.8031464l3.4015808 0l0 -20.409454l6.8031616 0l0 20.409454z" fill-rule="evenodd"/><path fill="#000000" d="m404.25793 258.98032l-6.8031616 6.8031616l-6.8031616 -6.8031616l3.4015808 0l0 -20.409454l6.8031616 0l0 20.409454z" fill-rule="evenodd"/><path stroke="#595959" stroke-width="1.0" stroke-linejoin="round" stroke-linecap="butt" d="m404.25793 258.98032l-6.8031616 6.8031616l-6.8031616 -6.8031616l3.4015808 0l0 -20.409454l6.8031616 0l0 20.409454z" fill-rule="evenodd"/><path fill="#000000" d="m404.25793 413.16534l-6.8031616 6.8031616l-6.8031616 -6.8031616l3.4015808 0l0 -20.409424l6.8031616 0l0 20.409424z" fill-rule="evenodd"/><path stroke="#595959" stroke-width="1.0" stroke-linejoin="round" stroke-linecap="butt" d="m404.25793 413.16534l-6.8031616 6.8031616l-6.8031616 -6.8031616l3.4015808 0l0 -20.409424l6.8031616 0l0 20.409424z" fill-rule="evenodd"/><path fill="#000000" d="m404.25662 338.02744l-6.8031616 6.8031616l-6.8031616 -6.8031616l3.4015808 0l0 -20.409454l6.8031616 0l0 20.409454z" fill-rule="evenodd"/><path stroke="#595959" stroke-width="1.0" stroke-linejoin="round" stroke-linecap="butt" d="m404.25662 338.02744l-6.8031616 6.8031616l-6.8031616 -6.8031616l3.4015808 0l0 -20.409454l6.8031616 0l0 20.409454z" fill-rule="evenodd"/><path fill="#4a86e8" d="m208.8091 116.34252l109.6693 0l0 31.71653l-109.6693 0z" fill-rule="evenodd"/><path stroke="#595959" stroke-width="1.0" stroke-linejoin="round" stroke-linecap="butt" d="m208.8091 116.34252l109.6693 0l0 31.71653l-109.6693 0z" fill-rule="evenodd"/><path fill="#cc0000" d="m208.8091 155.88094l109.6693 0l0 31.716537l-109.6693 0z" fill-rule="evenodd"/><path stroke="#595959" stroke-width="1.0" stroke-linejoin="round" stroke-linecap="butt" d="m208.8091 155.88094l109.6693 0l0 31.716537l-109.6693 0z" fill-rule="evenodd"/><path fill="#4a86e8" d="m208.8091 195.41937l109.6693 0l0 31.716522l-109.6693 0z" fill-rule="evenodd"/><path stroke="#595959" stroke-width="1.0" stroke-linejoin="round" stroke-linecap="butt" d="m208.8091 195.41937l109.6693 0l0 31.716522l-109.6693 0z" fill-rule="evenodd"/><path fill="#cc0000" d="m208.8091 234.9578l109.6693 0l0 31.716522l-109.6693 0z" fill-rule="evenodd"/><path stroke="#595959" stroke-width="1.0" stroke-linejoin="round" stroke-linecap="butt" d="m208.8091 234.9578l109.6693 0l0 31.716522l-109.6693 0z" fill-rule="evenodd"/><path fill="#4a86e8" d="m208.8091 352.1668l109.6693 0l0 31.716553l-109.6693 0z" fill-rule="evenodd"/><path stroke="#595959" stroke-width="1.0" stroke-linejoin="round" stroke-linecap="butt" d="m208.8091 352.1668l109.6693 0l0 31.716553l-109.6693 0z" fill-rule="evenodd"/><path fill="#cc0000" d="m208.8091 312.3483l109.6693 0l0 31.716522l-109.6693 0z" fill-rule="evenodd"/><path stroke="#595959" stroke-width="1.0" stroke-linejoin="round" stroke-linecap="butt" d="m208.8091 312.3483l109.6693 0l0 31.716522l-109.6693 0z" fill-rule="evenodd"/><path fill="#4a86e8" d="m208.80779 273.65298l109.6693 0l0 31.716553l-109.6693 0z" fill-rule="evenodd"/><path stroke="#595959" stroke-width="1.0" stroke-linejoin="round" stroke-linecap="butt" d="m208.80779 273.65298l109.6693 0l0 31.716553l-109.6693 0z" fill-rule="evenodd"/><path fill="#cc0000" d="m208.80779 391.51163l109.6693 0l0 31.716522l-109.6693 0z" fill-rule="evenodd"/><path stroke="#595959" stroke-width="1.0" stroke-linejoin="round" stroke-linecap="butt" d="m208.80779 391.51163l109.6693 0l0 31.716522l-109.6693 0z" fill-rule="evenodd"/><path fill="#ffffff" d="m256.8406 164.63461l6.803131 -6.8031464l6.8031616 6.8031464l-3.4015808 0l0 20.409454l-6.803131 0l0 -20.409454z" fill-rule="evenodd"/><path stroke="#595959" stroke-width="1.0" stroke-linejoin="round" stroke-linecap="butt" d="m256.8406 164.63461l6.803131 -6.8031464l6.8031616 6.8031464l-3.4015808 0l0 20.409454l-6.803131 0l0 -20.409454z" fill-rule="evenodd"/><path fill="#ffffff" d="m256.8406 243.71074l6.803131 -6.8031616l6.8031616 6.8031616l-3.4015808 0l0 20.40944l-6.803131 0l0 -20.40944z" fill-rule="evenodd"/><path stroke="#595959" stroke-width="1.0" stroke-linejoin="round" stroke-linecap="butt" d="m256.8406 243.71074l6.803131 -6.8031616l6.8031616 6.8031616l-3.4015808 0l0 20.40944l-6.803131 0l0 -20.40944z" fill-rule="evenodd"/><path fill="#ffffff" d="m256.8406 400.45746l6.803131 -6.8031616l6.8031616 6.8031616l-3.4015808 0l0 20.409454l-6.803131 0l0 -20.409454z" fill-rule="evenodd"/><path stroke="#595959" stroke-width="1.0" stroke-linejoin="round" stroke-linecap="butt" d="m256.8406 400.45746l6.803131 -6.8031616l6.8031616 6.8031616l-3.4015808 0l0 20.409454l-6.803131 0l0 -20.409454z" fill-rule="evenodd"/><path fill="#ffffff" d="m256.8393 321.19598l6.803131 -6.8031616l6.8031616 6.8031616l-3.4015808 0l0 20.409424l-6.803131 0l0 -20.409424z" fill-rule="evenodd"/><path stroke="#595959" stroke-width="1.0" stroke-linejoin="round" stroke-linecap="butt" d="m256.8393 321.19598l6.803131 -6.8031616l6.8031616 6.8031616l-3.4015808 0l0 20.409424l-6.803131 0l0 -20.409424z" fill-rule="evenodd"/><path fill="#000000" d="m270.4469 140.65355l-6.8031616 6.8031464l-6.803131 -6.8031464l3.4015808 0l0 -20.409454l6.803131 0l0 20.409454z" fill-rule="evenodd"/><path stroke="#595959" stroke-width="1.0" stroke-linejoin="round" stroke-linecap="butt" d="m270.4469 140.65355l-6.8031616 6.8031464l-6.803131 -6.8031464l3.4015808 0l0 -20.409454l6.803131 0l0 20.409454z" fill-rule="evenodd"/><path fill="#000000" d="m270.4469 221.17586l-6.8031616 6.8031464l-6.803131 -6.8031464l3.4015808 0l0 -20.409454l6.803131 0l0 20.409454z" fill-rule="evenodd"/><path stroke="#595959" stroke-width="1.0" stroke-linejoin="round" stroke-linecap="butt" d="m270.4469 221.17586l-6.8031616 6.8031464l-6.803131 -6.8031464l3.4015808 0l0 -20.409454l6.803131 0l0 20.409454z" fill-rule="evenodd"/><path fill="#000000" d="m270.4469 375.6614l-6.8031616 6.8031616l-6.803131 -6.8031616l3.4015808 0l0 -20.409424l6.803131 0l0 20.409424z" fill-rule="evenodd"/><path stroke="#595959" stroke-width="1.0" stroke-linejoin="round" stroke-linecap="butt" d="m270.4469 375.6614l-6.8031616 6.8031616l-6.803131 -6.8031616l3.4015808 0l0 -20.409424l6.803131 0l0 20.409424z" fill-rule="evenodd"/><path fill="#000000" d="m270.4456 297.1403l-6.8031616 6.8031616l-6.803131 -6.8031616l3.4015808 0l0 -20.409454l6.803131 0l0 20.409454z" fill-rule="evenodd"/><path stroke="#595959" stroke-width="1.0" stroke-linejoin="round" stroke-linecap="butt" d="m270.4456 297.1403l-6.8031616 6.8031616l-6.803131 -6.8031616l3.4015808 0l0 -20.409454l6.803131 0l0 20.409454z" fill-rule="evenodd"/><path fill="#000000" fill-opacity="0.0" d="m478.6929 63.44357l0 424.22046" fill-rule="evenodd"/><path stroke="#595959" stroke-width="1.0" stroke-linejoin="round" stroke-linecap="butt" stroke-dasharray="4.0,3.0" d="m478.6929 63.44357l0 424.22046" fill-rule="evenodd"/><path fill="#000000" fill-opacity="0.0" d="m247.10085 52.335674l176.56691 0l0 55.811024l-176.56691 0z" fill-rule="evenodd"/><path fill="#595959" d="m265.99146 77.6413l0 -2.015625l7.28125 -0.015625l0 6.375q-1.671875 1.328125 -3.453125 2.015625q-1.78125 0.671875 -3.65625 0.671875q-2.53125 0 -4.609375 -1.078125q-2.0625 -1.09375 -3.125 -3.140625q-1.046875 -2.0625 -1.046875 -4.59375q0 -2.5 1.046875 -4.671875q1.046875 -2.171875 3.015625 -3.21875q1.96875 -1.0625 4.53125 -1.0625q1.875 0 3.375 0.609375q1.5 0.59375 2.359375 1.671875q0.859375 1.078125 1.296875 2.8125l-2.046875 0.5625q-0.390625 -1.3125 -0.96875 -2.0625q-0.5625 -0.75 -1.640625 -1.203125q-1.0625 -0.453125 -2.359375 -0.453125q-1.5625 0 -2.703125 0.484375q-1.125 0.46875 -1.828125 1.25q-0.6875 0.765625 -1.078125 1.6875q-0.65625 1.59375 -0.65625 3.453125q0 2.296875 0.78125 3.84375q0.796875 1.546875 2.3125 2.296875q1.515625 0.75 3.203125 0.75q1.484375 0 2.890625 -0.5625q1.40625 -0.5625 2.125 -1.21875l0 -3.1875l-5.046875 0zm10.339844 6.734375l0 -12.453125l1.890625 0l0 1.890625q0.734375 -1.328125 1.34375 -1.75q0.625 -0.421875 1.359375 -0.421875q1.0625 0 2.171875 0.6875l-0.734375 1.953125q-0.765625 -0.453125 -1.546875 -0.453125q-0.6875 0 -1.25 0.421875q-0.546875 0.40625 -0.78125 1.140625q-0.34375 1.125 -0.34375 2.46875l0 6.515625l-2.109375 0zm7.2265625 -6.21875q0 -3.46875 1.921875 -5.125q1.609375 -1.390625 3.921875 -1.390625q2.5625 0 4.1875 1.6875q1.625 1.6875 1.625 4.640625q0 2.40625 -0.71875 3.78125q-0.71875 1.375 -2.09375 2.140625q-1.375 0.765625 -3.0 0.765625q-2.625 0 -4.234375 -1.671875q-1.609375 -1.6875 -1.609375 -4.828125zm2.171875 0q0 2.390625 1.03125 3.578125q1.046875 1.1875 2.640625 1.1875q1.5625 0 2.609375 -1.1875q1.046875 -1.203125 1.046875 -3.65625q0 -2.3125 -1.0625 -3.5q-1.046875 -1.1875 -2.59375 -1.1875q-1.59375 0 -2.640625 1.1875q-1.03125 1.1875 -1.03125 3.578125zm20.113281 6.21875l0 -1.828125q-1.453125 2.109375 -3.9375 2.109375q-1.109375 0 -2.0625 -0.421875q-0.953125 -0.421875 -1.421875 -1.0625q-0.453125 -0.640625 -0.640625 -1.5625q-0.140625 -0.625 -0.140625 -1.96875l0 -7.71875l2.109375 0l0 6.90625q0 1.65625 0.140625 2.234375q0.1875 0.828125 0.828125 1.3125q0.65625 0.46875 1.609375 0.46875q0.9375 0 1.765625 -0.484375q0.84375 -0.5 1.1875 -1.328125q0.34375 -0.84375 0.34375 -2.4375l0 -6.671875l2.109375 0l0 12.453125l-1.890625 0zm5.1914062 0l0 -12.453125l1.90625 0l0 1.78125q1.375 -2.0625 3.953125 -2.0625q1.125 0 2.0625 0.40625q0.953125 0.40625 1.421875 1.0625q0.46875 0.65625 0.65625 1.5625q0.125 0.578125 0.125 2.046875l0 7.65625l-2.109375 0l0 -7.578125q0 -1.28125 -0.25 -1.921875q-0.25 -0.640625 -0.875 -1.015625q-0.625 -0.390625 -1.46875 -0.390625q-1.34375 0 -2.328125 0.859375q-0.984375 0.859375 -0.984375 3.25l0 6.796875l-2.109375 0zm21.425781 0l0 -1.578125q-1.1875 1.859375 -3.484375 1.859375q-1.484375 0 -2.734375 -0.8125q-1.25 -0.828125 -1.9375 -2.296875q-0.671875 -1.46875 -0.671875 -3.390625q0 -1.859375 0.609375 -3.375q0.625 -1.515625 1.859375 -2.328125q1.25 -0.8125 2.78125 -0.8125q1.125 0 2.0 0.484375q0.890625 0.46875 1.4375 1.234375l0 -6.171875l2.09375 0l0 17.1875l-1.953125 0zm-6.671875 -6.21875q0 2.390625 1.0 3.578125q1.015625 1.1875 2.390625 1.1875q1.390625 0 2.34375 -1.125q0.96875 -1.140625 0.96875 -3.453125q0 -2.5625 -0.984375 -3.75q-0.984375 -1.203125 -2.421875 -1.203125q-1.40625 0 -2.359375 1.15625q-0.9375 1.140625 -0.9375 3.609375zm17.765625 2.5l2.09375 -0.328125q0.171875 1.25 0.96875 1.921875q0.8125 0.671875 2.25 0.671875q1.453125 0 2.15625 -0.59375q0.703125 -0.59375 0.703125 -1.390625q0 -0.71875 -0.625 -1.125q-0.421875 -0.28125 -2.15625 -0.71875q-2.3125 -0.578125 -3.21875 -1.0q-0.890625 -0.4375 -1.359375 -1.1875q-0.453125 -0.765625 -0.453125 -1.671875q0 -0.828125 0.375 -1.53125q0.390625 -0.71875 1.046875 -1.1875q0.484375 -0.359375 1.328125 -0.609375q0.859375 -0.265625 1.828125 -0.265625q1.46875 0 2.578125 0.421875q1.109375 0.421875 1.625 1.15625q0.53125 0.71875 0.734375 1.921875l-2.0625 0.28125q-0.140625 -0.96875 -0.8125 -1.5q-0.671875 -0.546875 -1.90625 -0.546875q-1.453125 0 -2.078125 0.484375q-0.625 0.484375 -0.625 1.125q0 0.40625 0.265625 0.734375q0.25 0.34375 0.8125 0.5625q0.3125 0.125 1.859375 0.546875q2.234375 0.59375 3.109375 0.984375q0.890625 0.375 1.390625 1.109375q0.515625 0.71875 0.515625 1.796875q0 1.046875 -0.625 1.984375q-0.609375 0.9375 -1.765625 1.453125q-1.15625 0.5 -2.625 0.5q-2.421875 0 -3.703125 -1.0q-1.265625 -1.015625 -1.625 -3.0zm17.453125 1.828125l0.3125 1.859375q-0.890625 0.203125 -1.59375 0.203125q-1.15625 0 -1.796875 -0.359375q-0.625 -0.375 -0.890625 -0.96875q-0.25 -0.59375 -0.25 -2.484375l0 -7.171875l-1.546875 0l0 -1.640625l1.546875 0l0 -3.078125l2.09375 -1.265625l0 4.34375l2.125 0l0 1.640625l-2.125 0l0 7.28125q0 0.90625 0.109375 1.171875q0.125 0.25 0.375 0.40625q0.25 0.140625 0.71875 0.140625q0.34375 0 0.921875 -0.078125zm10.183594 0.359375q-1.171875 0.984375 -2.265625 1.40625q-1.078125 0.40625 -2.3125 0.40625q-2.046875 0 -3.15625 -1.0q-1.09375 -1.0 -1.09375 -2.5625q0 -0.921875 0.40625 -1.671875q0.421875 -0.75 1.09375 -1.203125q0.671875 -0.46875 1.515625 -0.703125q0.625 -0.15625 1.875 -0.3125q2.5625 -0.3125 3.765625 -0.734375q0.015625 -0.421875 0.015625 -0.546875q0 -1.28125 -0.609375 -1.8125q-0.796875 -0.71875 -2.390625 -0.71875q-1.5 0 -2.203125 0.53125q-0.703125 0.515625 -1.046875 1.84375l-2.0625 -0.28125q0.28125 -1.328125 0.921875 -2.140625q0.640625 -0.8125 1.859375 -1.25q1.21875 -0.453125 2.828125 -0.453125q1.59375 0 2.59375 0.375q1.0 0.375 1.46875 0.953125q0.46875 0.5625 0.65625 1.4375q0.09375 0.53125 0.09375 1.9375l0 2.8125q0 2.9375 0.140625 3.71875q0.140625 0.78125 0.53125 1.5l-2.203125 0q-0.328125 -0.65625 -0.421875 -1.53125zm-0.171875 -4.71875q-1.15625 0.46875 -3.453125 0.796875q-1.296875 0.1875 -1.84375 0.421875q-0.53125 0.234375 -0.828125 0.6875q-0.28125 0.453125 -0.28125 1.0q0 0.84375 0.625 1.40625q0.640625 0.5625 1.875 0.5625q1.21875 0 2.171875 -0.53125q0.953125 -0.53125 1.390625 -1.453125q0.34375 -0.71875 0.34375 -2.109375l0 -0.78125zm10.003906 4.359375l0.3125 1.859375q-0.890625 0.203125 -1.59375 0.203125q-1.15625 0 -1.796875 -0.359375q-0.625 -0.375 -0.890625 -0.96875q-0.25 -0.59375 -0.25 -2.484375l0 -7.171875l-1.546875 0l0 -1.640625l1.546875 0l0 -3.078125l2.09375 -1.265625l0 4.34375l2.125 0l0 1.640625l-2.125 0l0 7.28125q0 0.90625 0.109375 1.171875q0.125 0.25 0.375 0.40625q0.25 0.140625 0.71875 0.140625q0.34375 0 0.921875 -0.078125zm10.589844 -2.125l2.171875 0.28125q-0.515625 1.90625 -1.90625 2.96875q-1.390625 1.046875 -3.5625 1.046875q-2.734375 0 -4.34375 -1.671875q-1.59375 -1.6875 -1.59375 -4.734375q0 -3.140625 1.609375 -4.875q1.625 -1.734375 4.203125 -1.734375q2.5 0 4.078125 1.703125q1.59375 1.703125 1.59375 4.78125q0 0.1875 -0.015625 0.5625l-9.28125 0q0.109375 2.046875 1.15625 3.140625q1.046875 1.09375 2.609375 1.09375q1.15625 0 1.96875 -0.609375q0.828125 -0.609375 1.3125 -1.953125zm-6.9375 -3.40625l6.953125 0q-0.140625 -1.5625 -0.796875 -2.359375q-1.0 -1.21875 -2.609375 -1.21875q-1.453125 0 -2.453125 0.984375q-0.984375 0.96875 -1.09375 2.59375zm10.910156 3.703125l2.09375 -0.328125q0.171875 1.25 0.96875 1.921875q0.8125 0.671875 2.25 0.671875q1.453125 0 2.15625 -0.59375q0.703125 -0.59375 0.703125 -1.390625q0 -0.71875 -0.625 -1.125q-0.421875 -0.28125 -2.15625 -0.71875q-2.3125 -0.578125 -3.21875 -1.0q-0.890625 -0.4375 -1.359375 -1.1875q-0.453125 -0.765625 -0.453125 -1.671875q0 -0.828125 0.375 -1.53125q0.390625 -0.71875 1.046875 -1.1875q0.484375 -0.359375 1.328125 -0.609375q0.859375 -0.265625 1.828125 -0.265625q1.46875 0 2.578125 0.421875q1.109375 0.421875 1.625 1.15625q0.53125 0.71875 0.734375 1.921875l-2.0625 0.28125q-0.140625 -0.96875 -0.8125 -1.5q-0.671875 -0.546875 -1.90625 -0.546875q-1.453125 0 -2.078125 0.484375q-0.625 0.484375 -0.625 1.125q0 0.40625 0.265625 0.734375q0.25 0.34375 0.8125 0.5625q0.3125 0.125 1.859375 0.546875q2.234375 0.59375 3.109375 0.984375q0.890625 0.375 1.390625 1.109375q0.515625 0.71875 0.515625 1.796875q0 1.046875 -0.625 1.984375q-0.609375 0.9375 -1.765625 1.453125q-1.15625 0.5 -2.625 0.5q-2.421875 0 -3.703125 -1.0q-1.265625 -1.015625 -1.625 -3.0z" fill-rule="nonzero"/><path fill="#000000" fill-opacity="0.0" d="m539.7885 52.711002l176.5669 0l0 55.811024l-176.5669 0z" fill-rule="evenodd"/><path fill="#595959" d="m550.69476 84.751l0 -17.1875l12.421875 0l0 2.03125l-10.15625 0l0 5.265625l9.5 0l0 2.015625l-9.5 0l0 5.84375l10.546875 0l0 2.03125l-12.8125 0zm14.2734375 0l4.546875 -6.46875l-4.203125 -5.984375l2.640625 0l1.90625 2.921875q0.546875 0.828125 0.875 1.390625q0.515625 -0.765625 0.9375 -1.359375l2.109375 -2.953125l2.515625 0l-4.296875 5.859375l4.625 6.59375l-2.59375 0l-2.546875 -3.875l-0.6875 -1.03125l-3.265625 4.90625l-2.5625 0zm21.53125 -4.5625l2.078125 0.265625q-0.34375 2.15625 -1.75 3.375q-1.390625 1.203125 -3.4375 1.203125q-2.546875 0 -4.109375 -1.671875q-1.546875 -1.671875 -1.546875 -4.78125q0 -2.015625 0.671875 -3.53125q0.671875 -1.515625 2.03125 -2.265625q1.359375 -0.765625 2.96875 -0.765625q2.03125 0 3.3125 1.03125q1.296875 1.03125 1.65625 2.90625l-2.046875 0.328125q-0.296875 -1.265625 -1.046875 -1.890625q-0.734375 -0.640625 -1.796875 -0.640625q-1.59375 0 -2.59375 1.15625q-0.984375 1.140625 -0.984375 3.609375q0 2.5 0.953125 3.640625q0.96875 1.140625 2.515625 1.140625q1.234375 0 2.0625 -0.765625q0.84375 -0.765625 1.0625 -2.34375zm3.890625 -10.1875l0 -2.4375l2.109375 0l0 2.4375l-2.109375 0zm0 14.75l0 -12.453125l2.109375 0l0 12.453125l-2.109375 0zm9.925781 -1.890625l0.3125 1.859375q-0.890625 0.203125 -1.59375 0.203125q-1.15625 0 -1.796875 -0.359375q-0.625 -0.375 -0.890625 -0.96875q-0.25 -0.59375 -0.25 -2.484375l0 -7.171875l-1.546875 0l0 -1.640625l1.546875 0l0 -3.078125l2.09375 -1.265625l0 4.34375l2.125 0l0 1.640625l-2.125 0l0 7.28125q0 0.90625 0.109375 1.171875q0.125 0.25 0.375 0.40625q0.25 0.140625 0.71875 0.140625q0.34375 0 0.921875 -0.078125zm10.589844 -2.125l2.171875 0.28125q-0.515625 1.90625 -1.90625 2.96875q-1.390625 1.046875 -3.5625 1.046875q-2.734375 0 -4.34375 -1.671875q-1.59375 -1.6875 -1.59375 -4.734375q0 -3.140625 1.609375 -4.875q1.625 -1.734375 4.203125 -1.734375q2.5 0 4.078125 1.703125q1.59375 1.703125 1.59375 4.78125q0 0.1875 -0.015625 0.5625l-9.28125 0q0.109375 2.046875 1.15625 3.140625q1.046875 1.09375 2.609375 1.09375q1.15625 0 1.96875 -0.609375q0.828125 -0.609375 1.3125 -1.953125zm-6.9375 -3.40625l6.953125 0q-0.140625 -1.5625 -0.796875 -2.359375q-1.0 -1.21875 -2.609375 -1.21875q-1.453125 0 -2.453125 0.984375q-0.984375 0.96875 -1.09375 2.59375zm19.832031 7.421875l0 -1.578125q-1.1875 1.859375 -3.484375 1.859375q-1.484375 0 -2.734375 -0.8125q-1.25 -0.828125 -1.9375 -2.296875q-0.671875 -1.46875 -0.671875 -3.390625q0 -1.859375 0.609375 -3.375q0.625 -1.515625 1.859375 -2.328125q1.25 -0.8125 2.78125 -0.8125q1.125 0 2.0 0.484375q0.890625 0.46875 1.4375 1.234375l0 -6.171875l2.09375 0l0 17.1875l-1.953125 0zm-6.671875 -6.21875q0 2.390625 1.0 3.578125q1.015625 1.1875 2.390625 1.1875q1.390625 0 2.34375 -1.125q0.96875 -1.140625 0.96875 -3.453125q0 -2.5625 -0.984375 -3.75q-0.984375 -1.203125 -2.421875 -1.203125q-1.40625 0 -2.359375 1.15625q-0.9375 1.140625 -0.9375 3.609375zm17.765625 2.5l2.09375 -0.328125q0.171875 1.25 0.96875 1.921875q0.8125 0.671875 2.25 0.671875q1.453125 0 2.15625 -0.59375q0.703125 -0.59375 0.703125 -1.390625q0 -0.71875 -0.625 -1.125q-0.421875 -0.28125 -2.15625 -0.71875q-2.3125 -0.578125 -3.21875 -1.0q-0.890625 -0.4375 -1.359375 -1.1875q-0.453125 -0.765625 -0.453125 -1.671875q0 -0.828125 0.375 -1.53125q0.390625 -0.71875 1.046875 -1.1875q0.484375 -0.359375 1.328125 -0.609375q0.859375 -0.265625 1.828125 -0.265625q1.46875 0 2.578125 0.421875q1.109375 0.421875 1.625 1.15625q0.53125 0.71875 0.734375 1.921875l-2.0625 0.28125q-0.140625 -0.96875 -0.8125 -1.5q-0.671875 -0.546875 -1.90625 -0.546875q-1.453125 0 -2.078125 0.484375q-0.625 0.484375 -0.625 1.125q0 0.40625 0.265625 0.734375q0.25 0.34375 0.8125 0.5625q0.3125 0.125 1.859375 0.546875q2.234375 0.59375 3.109375 0.984375q0.890625 0.375 1.390625 1.109375q0.515625 0.71875 0.515625 1.796875q0 1.046875 -0.625 1.984375q-0.609375 0.9375 -1.765625 1.453125q-1.15625 0.5 -2.625 0.5q-2.421875 0 -3.703125 -1.0q-1.265625 -1.015625 -1.625 -3.0zm17.453125 1.828125l0.3125 1.859375q-0.890625 0.203125 -1.59375 0.203125q-1.15625 0 -1.796875 -0.359375q-0.625 -0.375 -0.890625 -0.96875q-0.25 -0.59375 -0.25 -2.484375l0 -7.171875l-1.546875 0l0 -1.640625l1.546875 0l0 -3.078125l2.09375 -1.265625l0 4.34375l2.125 0l0 1.640625l-2.125 0l0 7.28125q0 0.90625 0.109375 1.171875q0.125 0.25 0.375 0.40625q0.25 0.140625 0.71875 0.140625q0.34375 0 0.921875 -0.078125zm10.183594 0.359375q-1.171875 0.984375 -2.265625 1.40625q-1.078125 0.40625 -2.3125 0.40625q-2.046875 0 -3.15625 -1.0q-1.09375 -1.0 -1.09375 -2.5625q0 -0.921875 0.40625 -1.671875q0.421875 -0.75 1.09375 -1.203125q0.671875 -0.46875 1.515625 -0.703125q0.625 -0.15625 1.875 -0.3125q2.5625 -0.3125 3.765625 -0.734375q0.015625 -0.421875 0.015625 -0.546875q0 -1.28125 -0.609375 -1.8125q-0.796875 -0.71875 -2.390625 -0.71875q-1.5 0 -2.203125 0.53125q-0.703125 0.515625 -1.046875 1.84375l-2.0625 -0.28125q0.28125 -1.328125 0.921875 -2.140625q0.640625 -0.8125 1.859375 -1.25q1.21875 -0.453125 2.828125 -0.453125q1.59375 0 2.59375 0.375q1.0 0.375 1.46875 0.953125q0.46875 0.5625 0.65625 1.4375q0.09375 0.53125 0.09375 1.9375l0 2.8125q0 2.9375 0.140625 3.71875q0.140625 0.78125 0.53125 1.5l-2.203125 0q-0.328125 -0.65625 -0.421875 -1.53125zm-0.171875 -4.71875q-1.15625 0.46875 -3.453125 0.796875q-1.296875 0.1875 -1.84375 0.421875q-0.53125 0.234375 -0.828125 0.6875q-0.28125 0.453125 -0.28125 1.0q0 0.84375 0.625 1.40625q0.640625 0.5625 1.875 0.5625q1.21875 0 2.171875 -0.53125q0.953125 -0.53125 1.390625 -1.453125q0.34375 -0.71875 0.34375 -2.109375l0 -0.78125zm10.003906 4.359375l0.3125 1.859375q-0.890625 0.203125 -1.59375 0.203125q-1.15625 0 -1.796875 -0.359375q-0.625 -0.375 -0.890625 -0.96875q-0.25 -0.59375 -0.25 -2.484375l0 -7.171875l-1.546875 0l0 -1.640625l1.546875 0l0 -3.078125l2.09375 -1.265625l0 4.34375l2.125 0l0 1.640625l-2.125 0l0 7.28125q0 0.90625 0.109375 1.171875q0.125 0.25 0.375 0.40625q0.25 0.140625 0.71875 0.140625q0.34375 0 0.921875 -0.078125zm10.589844 -2.125l2.171875 0.28125q-0.515625 1.90625 -1.90625 2.96875q-1.390625 1.046875 -3.5625 1.046875q-2.734375 0 -4.34375 -1.671875q-1.59375 -1.6875 -1.59375 -4.734375q0 -3.140625 1.609375 -4.875q1.625 -1.734375 4.203125 -1.734375q2.5 0 4.078125 1.703125q1.59375 1.703125 1.59375 4.78125q0 0.1875 -0.015625 0.5625l-9.28125 0q0.109375 2.046875 1.15625 3.140625q1.046875 1.09375 2.609375 1.09375q1.15625 0 1.96875 -0.609375q0.828125 -0.609375 1.3125 -1.953125zm-6.9375 -3.40625l6.953125 0q-0.140625 -1.5625 -0.796875 -2.359375q-1.0 -1.21875 -2.609375 -1.21875q-1.453125 0 -2.453125 0.984375q-0.984375 0.96875 -1.09375 2.59375zm10.910156 3.703125l2.09375 -0.328125q0.171875 1.25 0.96875 1.921875q0.8125 0.671875 2.25 0.671875q1.453125 0 2.15625 -0.59375q0.703125 -0.59375 0.703125 -1.390625q0 -0.71875 -0.625 -1.125q-0.421875 -0.28125 -2.15625 -0.71875q-2.3125 -0.578125 -3.21875 -1.0q-0.890625 -0.4375 -1.359375 -1.1875q-0.453125 -0.765625 -0.453125 -1.671875q0 -0.828125 0.375 -1.53125q0.390625 -0.71875 1.046875 -1.1875q0.484375 -0.359375 1.328125 -0.609375q0.859375 -0.265625 1.828125 -0.265625q1.46875 0 2.578125 0.421875q1.109375 0.421875 1.625 1.15625q0.53125 0.71875 0.734375 1.921875l-2.0625 0.28125q-0.140625 -0.96875 -0.8125 -1.5q-0.671875 -0.546875 -1.90625 -0.546875q-1.453125 0 -2.078125 0.484375q-0.625 0.484375 -0.625 1.125q0 0.40625 0.265625 0.734375q0.25 0.34375 0.8125 0.5625q0.3125 0.125 1.859375 0.546875q2.234375 0.59375 3.109375 0.984375q0.890625 0.375 1.390625 1.109375q0.515625 0.71875 0.515625 1.796875q0 1.046875 -0.625 1.984375q-0.609375 0.9375 -1.765625 1.453125q-1.15625 0.5 -2.625 0.5q-2.421875 0 -3.703125 -1.0q-1.265625 -1.015625 -1.625 -3.0z" fill-rule="nonzero"/></g></svg>